<mxfile host="app.diagrams.net" modified="2023-04-04T14:53:40.650Z" agent="Mozilla/5.0 (Windows NT 10.0; Win64; x64) AppleWebKit/537.36 (KHTML, like Gecko) Chrome/111.0.0.0 Safari/537.36" etag="pEKq6QqY9YeLXjc6-zTS" version="21.1.4">
  <diagram name="Pagina-1" id="YaO4j3VcUm5ErlNIh8F6">
    <mxGraphModel dx="4610" dy="1677" grid="1" gridSize="10" guides="1" tooltips="1" connect="1" arrows="1" fold="1" page="1" pageScale="1" pageWidth="827" pageHeight="1169" math="0" shadow="0">
      <root>
        <mxCell id="0" />
        <mxCell id="1" parent="0" />
        <mxCell id="zy98mWtT_64BrDUtUgrj-15" style="edgeStyle=orthogonalEdgeStyle;rounded=0;orthogonalLoop=1;jettySize=auto;html=1;" parent="1" edge="1">
          <mxGeometry relative="1" as="geometry">
            <mxPoint x="-156.29000000000002" y="220" as="targetPoint" />
            <mxPoint x="-156.29000000000002" y="180" as="sourcePoint" />
          </mxGeometry>
        </mxCell>
        <mxCell id="zy98mWtT_64BrDUtUgrj-7" value="Start" style="ellipse;whiteSpace=wrap;html=1;" parent="1" vertex="1">
          <mxGeometry x="-216" y="30" width="120" height="40" as="geometry" />
        </mxCell>
        <mxCell id="zy98mWtT_64BrDUtUgrj-19" style="edgeStyle=orthogonalEdgeStyle;rounded=0;orthogonalLoop=1;jettySize=auto;html=1;" parent="1" edge="1">
          <mxGeometry relative="1" as="geometry">
            <mxPoint x="-473.88" y="740" as="targetPoint" />
            <mxPoint x="-473.88" y="700" as="sourcePoint" />
          </mxGeometry>
        </mxCell>
        <mxCell id="zy98mWtT_64BrDUtUgrj-20" value="End" style="ellipse;whiteSpace=wrap;html=1;" parent="1" vertex="1">
          <mxGeometry x="-533" y="765" width="120" height="40" as="geometry" />
        </mxCell>
        <mxCell id="Y9gOx8UljjtN4c24FlKe-2" value="Mi serve un regalo per Silvia" style="rounded=1;whiteSpace=wrap;html=1;fillColor=#d5e8d4;strokeColor=#82b366;" vertex="1" parent="1">
          <mxGeometry x="-216" y="120" width="120" height="60" as="geometry" />
        </mxCell>
        <mxCell id="Y9gOx8UljjtN4c24FlKe-3" value="" style="endArrow=classic;html=1;rounded=0;" edge="1" parent="1">
          <mxGeometry width="50" height="50" relative="1" as="geometry">
            <mxPoint x="-157" y="70" as="sourcePoint" />
            <mxPoint x="-157" y="120" as="targetPoint" />
            <Array as="points">
              <mxPoint x="-157" y="90" />
            </Array>
          </mxGeometry>
        </mxCell>
        <mxCell id="Y9gOx8UljjtN4c24FlKe-10" style="edgeStyle=orthogonalEdgeStyle;rounded=0;orthogonalLoop=1;jettySize=auto;html=1;exitX=1;exitY=0.5;exitDx=0;exitDy=0;" edge="1" parent="1" source="Y9gOx8UljjtN4c24FlKe-5" target="Y9gOx8UljjtN4c24FlKe-6">
          <mxGeometry relative="1" as="geometry">
            <mxPoint x="50" y="330" as="targetPoint" />
            <Array as="points">
              <mxPoint x="-103" y="490" />
              <mxPoint x="50" y="490" />
              <mxPoint x="50" y="380" />
            </Array>
          </mxGeometry>
        </mxCell>
        <mxCell id="Y9gOx8UljjtN4c24FlKe-31" style="edgeStyle=orthogonalEdgeStyle;rounded=0;orthogonalLoop=1;jettySize=auto;html=1;entryX=0.5;entryY=0;entryDx=0;entryDy=0;" edge="1" parent="1" source="Y9gOx8UljjtN4c24FlKe-5">
          <mxGeometry relative="1" as="geometry">
            <mxPoint x="-156" y="600" as="targetPoint" />
          </mxGeometry>
        </mxCell>
        <mxCell id="Y9gOx8UljjtN4c24FlKe-5" value="Il prodotto prevede la spedizione Prime?" style="rhombus;whiteSpace=wrap;html=1;fillColor=#ffe6cc;strokeColor=#d79b00;" vertex="1" parent="1">
          <mxGeometry x="-210" y="435" width="107" height="115" as="geometry" />
        </mxCell>
        <mxCell id="Y9gOx8UljjtN4c24FlKe-8" style="edgeStyle=orthogonalEdgeStyle;rounded=0;orthogonalLoop=1;jettySize=auto;html=1;" edge="1" parent="1" source="Y9gOx8UljjtN4c24FlKe-6" target="Y9gOx8UljjtN4c24FlKe-5">
          <mxGeometry relative="1" as="geometry" />
        </mxCell>
        <mxCell id="Y9gOx8UljjtN4c24FlKe-6" value="Cerco prodotto su Amazon" style="rounded=0;whiteSpace=wrap;html=1;fillColor=#dae8fc;strokeColor=#6c8ebf;" vertex="1" parent="1">
          <mxGeometry x="-216" y="335" width="120" height="60" as="geometry" />
        </mxCell>
        <mxCell id="Y9gOx8UljjtN4c24FlKe-11" value="No" style="text;html=1;align=center;verticalAlign=middle;resizable=0;points=[];autosize=1;strokeColor=none;fillColor=none;" vertex="1" parent="1">
          <mxGeometry x="-60" y="450" width="40" height="30" as="geometry" />
        </mxCell>
        <mxCell id="Y9gOx8UljjtN4c24FlKe-28" style="edgeStyle=orthogonalEdgeStyle;rounded=0;orthogonalLoop=1;jettySize=auto;html=1;exitX=0.5;exitY=1;exitDx=0;exitDy=0;entryX=0.5;entryY=0;entryDx=0;entryDy=0;" edge="1" parent="1" source="Y9gOx8UljjtN4c24FlKe-24" target="Y9gOx8UljjtN4c24FlKe-6">
          <mxGeometry relative="1" as="geometry" />
        </mxCell>
        <mxCell id="Y9gOx8UljjtN4c24FlKe-24" value="Vorrei prenderle una lampada" style="rounded=0;whiteSpace=wrap;html=1;fillColor=#dae8fc;strokeColor=#6c8ebf;" vertex="1" parent="1">
          <mxGeometry x="-216" y="220" width="120" height="60" as="geometry" />
        </mxCell>
        <mxCell id="Y9gOx8UljjtN4c24FlKe-29" value="Non arriva in tempo" style="rounded=0;whiteSpace=wrap;html=1;fillColor=#dae8fc;strokeColor=#6c8ebf;" vertex="1" parent="1">
          <mxGeometry x="-10" y="390" width="120" height="60" as="geometry" />
        </mxCell>
        <mxCell id="Y9gOx8UljjtN4c24FlKe-33" value="Il prodotto non rientra nel mio budget?" style="rhombus;whiteSpace=wrap;html=1;fillColor=#ffe6cc;strokeColor=#d79b00;" vertex="1" parent="1">
          <mxGeometry x="-527" y="830" width="107" height="115" as="geometry" />
        </mxCell>
        <mxCell id="Y9gOx8UljjtN4c24FlKe-38" style="edgeStyle=orthogonalEdgeStyle;rounded=0;orthogonalLoop=1;jettySize=auto;html=1;" edge="1" parent="1">
          <mxGeometry relative="1" as="geometry">
            <mxPoint x="899.71" y="230" as="targetPoint" />
            <mxPoint x="899.71" y="190" as="sourcePoint" />
          </mxGeometry>
        </mxCell>
        <mxCell id="Y9gOx8UljjtN4c24FlKe-39" value="Start" style="ellipse;whiteSpace=wrap;html=1;" vertex="1" parent="1">
          <mxGeometry x="840" y="40" width="120" height="40" as="geometry" />
        </mxCell>
        <mxCell id="Y9gOx8UljjtN4c24FlKe-40" value="Mi serve un regalo per Silvia" style="rounded=1;whiteSpace=wrap;html=1;fillColor=#d5e8d4;strokeColor=#82b366;" vertex="1" parent="1">
          <mxGeometry x="840" y="130" width="120" height="60" as="geometry" />
        </mxCell>
        <mxCell id="Y9gOx8UljjtN4c24FlKe-41" value="" style="endArrow=classic;html=1;rounded=0;" edge="1" parent="1">
          <mxGeometry width="50" height="50" relative="1" as="geometry">
            <mxPoint x="899" y="80" as="sourcePoint" />
            <mxPoint x="899" y="130" as="targetPoint" />
            <Array as="points">
              <mxPoint x="899" y="100" />
            </Array>
          </mxGeometry>
        </mxCell>
        <mxCell id="Y9gOx8UljjtN4c24FlKe-42" style="edgeStyle=orthogonalEdgeStyle;rounded=0;orthogonalLoop=1;jettySize=auto;html=1;exitX=1;exitY=0.5;exitDx=0;exitDy=0;" edge="1" parent="1" source="Y9gOx8UljjtN4c24FlKe-44" target="Y9gOx8UljjtN4c24FlKe-46">
          <mxGeometry relative="1" as="geometry">
            <mxPoint x="1106" y="225" as="targetPoint" />
            <Array as="points">
              <mxPoint x="953" y="385" />
              <mxPoint x="1106" y="385" />
              <mxPoint x="1106" y="280" />
            </Array>
          </mxGeometry>
        </mxCell>
        <mxCell id="Y9gOx8UljjtN4c24FlKe-43" style="edgeStyle=orthogonalEdgeStyle;rounded=0;orthogonalLoop=1;jettySize=auto;html=1;entryX=0.5;entryY=0;entryDx=0;entryDy=0;" edge="1" parent="1" source="Y9gOx8UljjtN4c24FlKe-44">
          <mxGeometry relative="1" as="geometry">
            <mxPoint x="900" y="495" as="targetPoint" />
          </mxGeometry>
        </mxCell>
        <mxCell id="Y9gOx8UljjtN4c24FlKe-44" value="Il prodotto piace a Silvia?" style="rhombus;whiteSpace=wrap;html=1;fillColor=#ffe6cc;strokeColor=#d79b00;" vertex="1" parent="1">
          <mxGeometry x="838.5" y="330" width="123" height="115" as="geometry" />
        </mxCell>
        <mxCell id="Y9gOx8UljjtN4c24FlKe-45" style="edgeStyle=orthogonalEdgeStyle;rounded=0;orthogonalLoop=1;jettySize=auto;html=1;" edge="1" parent="1" source="Y9gOx8UljjtN4c24FlKe-46" target="Y9gOx8UljjtN4c24FlKe-44">
          <mxGeometry relative="1" as="geometry" />
        </mxCell>
        <mxCell id="Y9gOx8UljjtN4c24FlKe-46" value="Cerco prodotto su Amazon" style="rounded=0;whiteSpace=wrap;html=1;fillColor=#dae8fc;strokeColor=#6c8ebf;" vertex="1" parent="1">
          <mxGeometry x="840" y="230" width="120" height="60" as="geometry" />
        </mxCell>
        <mxCell id="Y9gOx8UljjtN4c24FlKe-47" value="No" style="text;html=1;align=center;verticalAlign=middle;resizable=0;points=[];autosize=1;strokeColor=none;fillColor=none;" vertex="1" parent="1">
          <mxGeometry x="996" y="345" width="40" height="30" as="geometry" />
        </mxCell>
        <mxCell id="Y9gOx8UljjtN4c24FlKe-48" value="SÃ¬" style="text;html=1;align=center;verticalAlign=middle;resizable=0;points=[];autosize=1;strokeColor=none;fillColor=none;" vertex="1" parent="1">
          <mxGeometry x="916" y="445" width="30" height="30" as="geometry" />
        </mxCell>
        <mxCell id="Y9gOx8UljjtN4c24FlKe-64" style="edgeStyle=orthogonalEdgeStyle;rounded=0;orthogonalLoop=1;jettySize=auto;html=1;exitX=1;exitY=0.5;exitDx=0;exitDy=0;entryX=1;entryY=0.25;entryDx=0;entryDy=0;" edge="1" parent="1" source="Y9gOx8UljjtN4c24FlKe-52" target="Y9gOx8UljjtN4c24FlKe-46">
          <mxGeometry relative="1" as="geometry">
            <Array as="points">
              <mxPoint x="1340" y="718" />
              <mxPoint x="1340" y="245" />
            </Array>
          </mxGeometry>
        </mxCell>
        <mxCell id="Y9gOx8UljjtN4c24FlKe-52" value="Rispetta il budget?" style="rhombus;whiteSpace=wrap;html=1;fillColor=#ffe6cc;strokeColor=#d79b00;" vertex="1" parent="1">
          <mxGeometry x="846" y="660" width="107" height="115" as="geometry" />
        </mxCell>
        <mxCell id="Y9gOx8UljjtN4c24FlKe-105" style="edgeStyle=orthogonalEdgeStyle;rounded=0;orthogonalLoop=1;jettySize=auto;html=1;exitX=1;exitY=0.5;exitDx=0;exitDy=0;entryX=0.5;entryY=1;entryDx=0;entryDy=0;" edge="1" parent="1" source="Y9gOx8UljjtN4c24FlKe-53" target="Y9gOx8UljjtN4c24FlKe-62">
          <mxGeometry relative="1" as="geometry" />
        </mxCell>
        <mxCell id="Y9gOx8UljjtN4c24FlKe-53" value="Il prodotto prevede la spedizione Prime?" style="rhombus;whiteSpace=wrap;html=1;fillColor=#ffe6cc;strokeColor=#d79b00;" vertex="1" parent="1">
          <mxGeometry x="837" y="495" width="123" height="115" as="geometry" />
        </mxCell>
        <mxCell id="Y9gOx8UljjtN4c24FlKe-54" style="edgeStyle=orthogonalEdgeStyle;rounded=0;orthogonalLoop=1;jettySize=auto;html=1;entryX=0.5;entryY=0;entryDx=0;entryDy=0;" edge="1" parent="1">
          <mxGeometry relative="1" as="geometry">
            <mxPoint x="900" y="660" as="targetPoint" />
            <mxPoint x="900" y="610" as="sourcePoint" />
          </mxGeometry>
        </mxCell>
        <mxCell id="Y9gOx8UljjtN4c24FlKe-55" value="SÃ¬" style="text;html=1;align=center;verticalAlign=middle;resizable=0;points=[];autosize=1;strokeColor=none;fillColor=none;" vertex="1" parent="1">
          <mxGeometry x="916" y="610" width="30" height="30" as="geometry" />
        </mxCell>
        <mxCell id="Y9gOx8UljjtN4c24FlKe-56" style="edgeStyle=orthogonalEdgeStyle;rounded=0;orthogonalLoop=1;jettySize=auto;html=1;entryX=0.5;entryY=0;entryDx=0;entryDy=0;" edge="1" parent="1">
          <mxGeometry relative="1" as="geometry">
            <mxPoint x="900" y="825" as="targetPoint" />
            <mxPoint x="900" y="775" as="sourcePoint" />
          </mxGeometry>
        </mxCell>
        <mxCell id="Y9gOx8UljjtN4c24FlKe-57" value="SÃ¬" style="text;html=1;align=center;verticalAlign=middle;resizable=0;points=[];autosize=1;strokeColor=none;fillColor=none;" vertex="1" parent="1">
          <mxGeometry x="916" y="775" width="30" height="30" as="geometry" />
        </mxCell>
        <mxCell id="Y9gOx8UljjtN4c24FlKe-59" value="Acquisto il regalo" style="rounded=1;whiteSpace=wrap;html=1;fillColor=#d5e8d4;strokeColor=#82b366;" vertex="1" parent="1">
          <mxGeometry x="840" y="830" width="120" height="60" as="geometry" />
        </mxCell>
        <mxCell id="Y9gOx8UljjtN4c24FlKe-60" value="No" style="text;html=1;align=center;verticalAlign=middle;resizable=0;points=[];autosize=1;strokeColor=none;fillColor=none;" vertex="1" parent="1">
          <mxGeometry x="1010" y="520" width="40" height="30" as="geometry" />
        </mxCell>
        <mxCell id="Y9gOx8UljjtN4c24FlKe-106" style="edgeStyle=orthogonalEdgeStyle;rounded=0;orthogonalLoop=1;jettySize=auto;html=1;entryX=1;entryY=0.5;entryDx=0;entryDy=0;" edge="1" parent="1" source="Y9gOx8UljjtN4c24FlKe-62" target="Y9gOx8UljjtN4c24FlKe-46">
          <mxGeometry relative="1" as="geometry">
            <Array as="points">
              <mxPoint x="1250" y="260" />
            </Array>
          </mxGeometry>
        </mxCell>
        <mxCell id="Y9gOx8UljjtN4c24FlKe-62" value="Non arriva in tempo" style="rounded=0;whiteSpace=wrap;html=1;fillColor=#dae8fc;strokeColor=#6c8ebf;" vertex="1" parent="1">
          <mxGeometry x="1191" y="435" width="120" height="60" as="geometry" />
        </mxCell>
        <mxCell id="Y9gOx8UljjtN4c24FlKe-65" value="No" style="text;html=1;align=center;verticalAlign=middle;resizable=0;points=[];autosize=1;strokeColor=none;fillColor=none;" vertex="1" parent="1">
          <mxGeometry x="1010" y="690" width="40" height="30" as="geometry" />
        </mxCell>
        <mxCell id="Y9gOx8UljjtN4c24FlKe-92" value="Opto per una stilografica" style="rounded=0;whiteSpace=wrap;html=1;fillColor=#dae8fc;strokeColor=#6c8ebf;" vertex="1" parent="1">
          <mxGeometry x="-216" y="600" width="120" height="60" as="geometry" />
        </mxCell>
        <mxCell id="Y9gOx8UljjtN4c24FlKe-99" style="edgeStyle=orthogonalEdgeStyle;rounded=0;orthogonalLoop=1;jettySize=auto;html=1;" edge="1" parent="1">
          <mxGeometry relative="1" as="geometry">
            <mxPoint x="899.3100000000001" y="930" as="targetPoint" />
            <mxPoint x="899.3100000000001" y="890" as="sourcePoint" />
          </mxGeometry>
        </mxCell>
        <mxCell id="Y9gOx8UljjtN4c24FlKe-100" value="End" style="ellipse;whiteSpace=wrap;html=1;" vertex="1" parent="1">
          <mxGeometry x="840" y="930" width="120" height="40" as="geometry" />
        </mxCell>
        <mxCell id="Y9gOx8UljjtN4c24FlKe-101" value="Opto per una stilografioca?" style="rhombus;whiteSpace=wrap;html=1;fillColor=#ffe6cc;strokeColor=#d79b00;" vertex="1" parent="1">
          <mxGeometry x="-520" y="555" width="107" height="115" as="geometry" />
        </mxCell>
        <mxCell id="Y9gOx8UljjtN4c24FlKe-107" value="SÃ¬" style="text;html=1;align=center;verticalAlign=middle;resizable=0;points=[];autosize=1;strokeColor=none;fillColor=none;" vertex="1" parent="1">
          <mxGeometry x="-140" y="555" width="30" height="30" as="geometry" />
        </mxCell>
      </root>
    </mxGraphModel>
  </diagram>
</mxfile>
